<svg width="30" height="31" viewBox="0 0 30 31" fill="none" xmlns="http://www.w3.org/2000/svg">
<path d="M26.25 26.75L18.75 19.25M3.75 13C3.75 14.1491 3.97633 15.2869 4.41605 16.3485C4.85578 17.4101 5.5003 18.3747 6.31282 19.1872C7.12533 19.9997 8.08992 20.6442 9.15152 21.0839C10.2131 21.5237 11.3509 21.75 12.5 21.75C13.6491 21.75 14.7869 21.5237 15.8485 21.0839C16.9101 20.6442 17.8747 19.9997 18.6872 19.1872C19.4997 18.3747 20.1442 17.4101 20.5839 16.3485C21.0237 15.2869 21.25 14.1491 21.25 13C21.25 11.8509 21.0237 10.7131 20.5839 9.65152C20.1442 8.58992 19.4997 7.62533 18.6872 6.81282C17.8747 6.0003 16.9101 5.35578 15.8485 4.91605C14.7869 4.47633 13.6491 4.25 12.5 4.25C11.3509 4.25 10.2131 4.47633 9.15152 4.91605C8.08992 5.35578 7.12533 6.0003 6.31282 6.81282C5.5003 7.62533 4.85578 8.58992 4.41605 9.65152C3.97633 10.7131 3.75 11.8509 3.75 13Z" stroke="black" stroke-width="2" stroke-linecap="round" stroke-linejoin="round"/>
</svg>
