<svg width="50" height="50" viewBox="0 0 50 50" fill="none" xmlns="http://www.w3.org/2000/svg">
<path d="M30.3683 19.2188V27.154C30.3683 27.3549 30.212 27.5112 30.0112 27.5112H28.7388C28.6161 27.5112 28.5045 27.4442 28.4487 27.3661L24.8103 22.4554V27.1652C24.8103 27.3661 24.654 27.5223 24.4531 27.5223H23.1808C22.9799 27.5223 22.8237 27.3661 22.8237 27.1652V19.2299C22.8237 19.029 22.9799 18.8728 23.1808 18.8728H24.442C24.5536 18.8728 24.6763 18.9286 24.7321 19.029L28.3705 23.9397V19.2299C28.3705 19.029 28.5268 18.8728 28.7277 18.8728H30C30.2009 18.8616 30.3683 19.029 30.3683 19.2188ZM21.2165 18.8616H19.9442C19.7433 18.8616 19.5871 19.0179 19.5871 19.2188V27.154C19.5871 27.3549 19.7433 27.5112 19.9442 27.5112H21.2165C21.4174 27.5112 21.5737 27.3549 21.5737 27.154V19.2188C21.5737 19.029 21.4174 18.8616 21.2165 18.8616ZM18.1473 25.5134H14.6763V19.2188C14.6763 19.0179 14.5201 18.8616 14.3192 18.8616H13.0469C12.846 18.8616 12.6897 19.0179 12.6897 19.2188V27.154C12.6897 27.2545 12.7232 27.3326 12.7902 27.3996C12.8572 27.4554 12.9353 27.5 13.0357 27.5H18.1362C18.3371 27.5 18.4933 27.3438 18.4933 27.1429V25.8705C18.4933 25.6808 18.3371 25.5134 18.1473 25.5134ZM37.0647 18.8616H31.9643C31.7745 18.8616 31.6071 19.0179 31.6071 19.2188V27.154C31.6071 27.3437 31.7634 27.5112 31.9643 27.5112H37.0647C37.2656 27.5112 37.4219 27.3549 37.4219 27.154V25.8817C37.4219 25.6808 37.2656 25.5246 37.0647 25.5246H33.5937V24.1853H37.0647C37.2656 24.1853 37.4219 24.029 37.4219 23.8281V22.5446C37.4219 22.3438 37.2656 22.1875 37.0647 22.1875H33.5937V20.8482H37.0647C37.2656 20.8482 37.4219 20.692 37.4219 20.4911V19.2188C37.4107 19.029 37.2545 18.8616 37.0647 18.8616ZM50 9.11832V40.9598C49.9888 45.9598 45.8928 50.0111 40.8817 50H9.04019C4.0402 49.9888 -0.0111377 45.8817 2.3004e-05 40.8817V9.04019C0.0111837 4.0402 4.11832 -0.0111377 9.11832 2.3004e-05H40.9598C45.9598 0.0111837 50.0111 4.10716 50 9.11832ZM43.125 22.8013C43.125 14.654 34.9553 8.02457 24.9219 8.02457C14.8884 8.02457 6.71877 14.654 6.71877 22.8013C6.71877 30.1004 13.192 36.2165 21.942 37.3772C24.0737 37.8348 23.8281 38.6161 23.3482 41.4844C23.2701 41.942 22.9799 43.2812 24.9219 42.4665C26.8638 41.6518 35.4018 36.2946 39.2299 31.8973C41.8638 28.9955 43.125 26.0603 43.125 22.8013Z" fill="white"/>
</svg>
