<svg width="50" height="50" viewBox="0 0 50 50" fill="none" xmlns="http://www.w3.org/2000/svg">
<path d="M25.0056 12.1891C17.9113 12.1891 12.1891 17.9114 12.1891 25.0057C12.1891 32.0999 17.9113 37.8222 25.0056 37.8222C32.0998 37.8222 37.8221 32.0999 37.8221 25.0057C37.8221 17.9114 32.0998 12.1891 25.0056 12.1891ZM25.0056 33.3381C20.4211 33.3381 16.6732 29.6013 16.6732 25.0057C16.6732 20.41 20.4099 16.6733 25.0056 16.6733C29.6012 16.6733 33.338 20.41 33.338 25.0057C33.338 29.6013 29.5901 33.3381 25.0056 33.3381ZM41.3358 11.6649C41.3358 13.3269 39.9972 14.6543 38.3464 14.6543C36.6843 14.6543 35.3569 13.3157 35.3569 11.6649C35.3569 10.014 36.6955 8.67548 38.3464 8.67548C39.9972 8.67548 41.3358 10.014 41.3358 11.6649ZM49.8243 14.6989C49.6347 10.6944 48.72 7.14732 45.7864 4.22484C42.8639 1.30236 39.3168 0.387694 35.3123 0.186914C31.1852 -0.0473306 18.8148 -0.0473306 14.6877 0.186914C10.6944 0.37654 7.14724 1.29121 4.21361 4.21368C1.27998 7.13616 0.376464 10.6833 0.175683 14.6877C-0.0585611 18.8149 -0.0585611 31.1852 0.175683 35.3124C0.36531 39.3169 1.27998 42.864 4.21361 45.7865C7.14724 48.7089 10.6832 49.6236 14.6877 49.8244C18.8148 50.0586 31.1852 50.0586 35.3123 49.8244C39.3168 49.6348 42.8639 48.7201 45.7864 45.7865C48.7089 42.864 49.6235 39.3169 49.8243 35.3124C50.0586 31.1852 50.0586 18.8261 49.8243 14.6989ZM44.4925 39.7407C43.6224 41.927 41.9381 43.6113 39.7407 44.4925C36.4501 45.7976 28.6419 45.4965 25.0056 45.4965C21.3692 45.4965 13.5499 45.7865 10.2705 44.4925C8.08422 43.6225 6.39989 41.9382 5.51868 39.7407C4.21361 36.4502 4.51478 28.642 4.51478 25.0057C4.51478 21.3693 4.22476 13.55 5.51868 10.2706C6.38873 8.08429 8.07306 6.39996 10.2705 5.51876C13.5611 4.21368 21.3692 4.51486 25.0056 4.51486C28.6419 4.51486 36.4612 4.22484 39.7407 5.51876C41.9269 6.38881 43.6113 8.07314 44.4925 10.2706C45.7975 13.5611 45.4964 21.3693 45.4964 25.0057C45.4964 28.642 45.7975 36.4613 44.4925 39.7407Z" fill="white"/>
</svg>
