<svg width="30" height="31" viewBox="0 0 30 31" fill="none" xmlns="http://www.w3.org/2000/svg">
<path d="M21.25 23C21.913 23 22.5489 23.2634 23.0178 23.7322C23.4866 24.2011 23.75 24.837 23.75 25.5C23.75 26.163 23.4866 26.7989 23.0178 27.2678C22.5489 27.7366 21.913 28 21.25 28C20.587 28 19.9511 27.7366 19.4822 27.2678C19.0134 26.7989 18.75 26.163 18.75 25.5C18.75 24.1125 19.8625 23 21.25 23ZM1.25 3H5.3375L6.5125 5.5H25C25.3315 5.5 25.6495 5.6317 25.8839 5.86612C26.1183 6.10054 26.25 6.41848 26.25 6.75C26.25 6.9625 26.1875 7.175 26.1 7.375L21.625 15.4625C21.2 16.225 20.375 16.75 19.4375 16.75H10.125L9 18.7875L8.9625 18.9375C8.9625 19.0204 8.99542 19.0999 9.05403 19.1585C9.11263 19.2171 9.19212 19.25 9.275 19.25H23.75V21.75H8.75C8.08696 21.75 7.45107 21.4866 6.98223 21.0178C6.51339 20.5489 6.25 19.913 6.25 19.25C6.25 18.8125 6.3625 18.4 6.55 18.05L8.25 14.9875L3.75 5.5H1.25V3ZM8.75 23C9.41304 23 10.0489 23.2634 10.5178 23.7322C10.9866 24.2011 11.25 24.837 11.25 25.5C11.25 26.163 10.9866 26.7989 10.5178 27.2678C10.0489 27.7366 9.41304 28 8.75 28C8.08696 28 7.45107 27.7366 6.98223 27.2678C6.51339 26.7989 6.25 26.163 6.25 25.5C6.25 24.1125 7.3625 23 8.75 23ZM20 14.25L23.475 8H7.675L10.625 14.25H20Z" fill="black"/>
</svg>
